<svg xmlns="http://www.w3.org/2000/svg" viewBox="0 0 1600 560" role="img" aria-labelledby="t d">
<title id="t">Kaustubh Dua — Electronics and Computer Engineering</title>
<desc id="d">Dark animated engineering interface with a grid, signal paths, active nodes and technical typography.</desc>
<defs><linearGradient id="bg" x1="0" y1="0" x2="1" y2="1"><stop stop-color="#07111f"/><stop offset=".52" stop-color="#0b1728"/><stop offset="1" stop-color="#06101b"/></linearGradient><linearGradient id="glow"><stop stop-color="#22c55e" stop-opacity="0"/><stop offset=".45" stop-color="#22c55e"/><stop offset="1" stop-color="#38bdf8" stop-opacity="0"/></linearGradient><radialGradient id="a"><stop stop-color="#0ea5e9" stop-opacity=".25"/><stop offset="1" stop-color="#0ea5e9" stop-opacity="0"/></radialGradient><filter id="blur"><feGaussianBlur stdDeviation="26"/></filter><pattern id="grid" width="48" height="48" patternUnits="userSpaceOnUse"><path d="M48 0H0V48" fill="none" stroke="#94a3b8" stroke-opacity=".075"/></pattern><style>.flow{stroke-dasharray:10 18;animation:dash 4s linear infinite}.pulse{animation:pulse 2.8s ease-in-out infinite}.pulse2{animation:pulse 2.8s ease-in-out 1.2s infinite}@keyframes dash{to{stroke-dashoffset:-112}}@keyframes pulse{0%,100%{opacity:.25}50%{opacity:1}}@media(prefers-reduced-motion:reduce){.flow,.pulse,.pulse2{animation:none}}</style></defs>
<rect width="1600" height="560" rx="28" fill="url(#bg)"/><rect width="1600" height="560" rx="28" fill="url(#grid)"/><ellipse cx="1240" cy="100" rx="420" ry="260" fill="url(#a)" filter="url(#blur)"/><ellipse cx="260" cy="480" rx="360" ry="190" fill="#22c55e" opacity=".06" filter="url(#blur)"/>
<g fill="none" stroke-linecap="round"><path d="M-20 420H250L330 340H560L640 260H820" stroke="#334155" stroke-width="2"/><path d="M178 560V430L310 298H520L620 198H930" stroke="#334155" stroke-width="2"/><path d="M840 560V450L970 320H1180L1280 220H1620" stroke="#334155" stroke-width="2"/><path class="flow" d="M-20 420H250L330 340H560L640 260H820" stroke="url(#glow)" stroke-width="3"/><path class="flow" d="M178 560V430L310 298H520L620 198H930" stroke="#38bdf8" stroke-opacity=".75" stroke-width="2"/><path class="flow" d="M840 560V450L970 320H1180L1280 220H1620" stroke="#22c55e" stroke-opacity=".7" stroke-width="2"/></g>
<g fill="#0b1728" stroke="#38bdf8" stroke-width="2"><circle class="pulse" cx="250" cy="420" r="5"/><circle class="pulse2" cx="330" cy="340" r="5"/><circle class="pulse" cx="560" cy="260" r="5"/><circle class="pulse2" cx="620" cy="198" r="5"/><circle class="pulse" cx="970" cy="320" r="5"/><circle class="pulse2" cx="1180" cy="320" r="5"/></g>
<g font-family="ui-monospace,SFMono-Regular,Menlo,monospace" fill="#94a3b8" font-size="13" letter-spacing="2"><text x="90" y="92">ENGINEERING / AI / DATA / SYSTEMS</text><text x="90" y="480">JIIT NOIDA · ELECTRONICS &amp; COMPUTER ENGINEERING</text><text x="90" y="510" fill="#64748b">BUILDING SOFTWARE FOR PROBLEMS THAT DON’T FIT IN A TEXT BOX.</text></g>
<g font-family="Inter,ui-sans-serif,system-ui,sans-serif" fill="#f8fafc"><text x="90" y="190" font-size="78" font-weight="750" letter-spacing="-3">KAUSTUBH DUA</text><text x="94" y="238" font-size="25" fill="#cbd5e1">student engineer · builder · open-source learner</text></g>
<g font-family="ui-monospace,SFMono-Regular,Menlo,monospace" font-size="14" fill="#cbd5e1"><text x="1010" y="110">01 / BUILD</text><text x="1010" y="145" fill="#22c55e">AI + DATA</text><text x="1010" y="185">02 / CONNECT</text><text x="1010" y="220" fill="#38bdf8">SYSTEMS</text><text x="1010" y="260">03 / SHIP</text><text x="1010" y="295" fill="#22c55e">PRODUCT</text></g></svg>