<svg xmlns="http://www.w3.org/2000/svg" width="1200" height="300" viewBox="0 0 1200 300" role="img" aria-labelledby="title desc">
<title id="title">Project ecosystem</title><desc id="desc">Connected cards representing software engineering, data and AI, geospatial systems, and product interfaces.</desc>
<defs><linearGradient id="b" x2="1" y2="1"><stop stop-color="#0b1225"/><stop offset="1" stop-color="#17264a"/></linearGradient><linearGradient id="g"><stop stop-color="#22d3ee"/><stop offset="1" stop-color="#a78bfa"/></linearGradient></defs><rect width="1200" height="300" rx="22" fill="url(#b)"/>
<g fill="none" stroke="#526b99" stroke-opacity=".65" stroke-width="2"><path d="M300 150H410M600 150H710M900 150H1010"/><path d="M600 48V88M600 212V252"/></g>
<g fill="#22d3ee"><circle cx="410" cy="150" r="4"/><circle cx="710" cy="150" r="4"/><circle cx="1010" cy="150" r="4"/></g>
<g font-family="Arial,sans-serif"><g transform="translate(40 92)"><rect width="260" height="116" rx="14" fill="#101d39" stroke="#38527d"/><circle cx="38" cy="36" r="17" fill="#123e57" stroke="#22d3ee"/><path d="M30 36h16M38 28v16" stroke="#67e8f9" stroke-width="2"/><text x="68" y="39" fill="#f8fafc" font-size="18" font-weight="700">Product engineering</text><text x="24" y="78" fill="#a8bbd7" font-size="13">Interfaces · workflows · UX</text></g>
<g transform="translate(410 92)"><rect width="190" height="116" rx="14" fill="#101d39" stroke="#38527d"/><circle cx="36" cy="36" r="17" fill="#30285a" stroke="#a78bfa"/><path d="M27 36l7-8 6 16 7-8" fill="none" stroke="#c4b5fd" stroke-width="2"/><text x="65" y="39" fill="#f8fafc" font-size="18" font-weight="700">AI & data</text><text x="22" y="78" fill="#a8bbd7" font-size="13">Models · analysis · APIs</text></g>
<g transform="translate(710 92)"><rect width="190" height="116" rx="14" fill="#101d39" stroke="#38527d"/><circle cx="36" cy="36" r="17" fill="#143f3b" stroke="#34d399"/><path d="M26 40l10-16 10 16z" fill="none" stroke="#6ee7b7" stroke-width="2"/><text x="65" y="39" fill="#f8fafc" font-size="18" font-weight="700">Geospatial</text><text x="22" y="78" fill="#a8bbd7" font-size="13">Maps · routing · signals</text></g>
<g transform="translate(1010 92)"><rect width="150" height="116" rx="14" fill="#101d39" stroke="#38527d"/><circle cx="36" cy="36" r="17" fill="#49331d" stroke="#fbbf24"/><path d="M27 31h18v12H27zM31 27h10" fill="none" stroke="#fcd34d" stroke-width="2"/><text x="65" y="39" fill="#f8fafc" font-size="17" font-weight="700">Systems</text><text x="20" y="78" fill="#a8bbd7" font-size="12">C++ · tests · CI</text></g>
<text x="600" y="35" text-anchor="middle" fill="#8ba6cb" font-size="12" letter-spacing="4">A CROSS-DISCIPLINARY PROJECT PORTFOLIO</text><text x="600" y="275" text-anchor="middle" fill="#a8bbd7" font-size="13">Different problems, shared habit: make the work understandable and testable.</text></g></svg>